<?xml version="1.0" encoding="UTF-8"?>
<svg id="Layer_2" data-name="Layer 2" xmlns="http://www.w3.org/2000/svg" viewBox="0 0 1000 1000">
  <defs>
    <style>
      .cls-1 {
        fill: #ffffff;
      }
    </style>
  </defs>
  <path class="cls-1" d="M692.33,599.69l54.11,54.11c86.87,86.87,86.87,227.71,0,314.58h0c-17.16,17.16-44.99,17.16-62.16,0l-368.68-368.68c-17.16-17.16-17.16-44.99,0-62.16l242.47-242.47c86.87-86.87,227.71-86.87,314.58,0h0c17.16,17.16,17.16,44.99,0,62.16l-180.32,180.32c-17.16,17.16-17.16,44.99,0,62.16Z"/>
  <path class="cls-1" d="M422.11,391.62l-126.21,126.21c-17.16,17.16-44.99,17.16-62.16,0l-54.11-54.11c-86.87-86.87-86.87-227.71,0-314.58h0c17.16-17.16,44.99-17.16,62.16,0l180.32,180.32c17.16,17.16,17.16,44.99,0,62.16Z"/>
  <path class="cls-1" d="M422.11,807.76l-180.32,180.32c-17.16,17.16-44.99,17.16-62.16,0h0c-86.87-86.87-86.87-227.71,0-314.58l54.11-54.11c17.16-17.16,44.99-17.16,62.16,0l126.21,126.21c17.16,17.16,17.16,44.99,0,62.16Z"/>
  <circle class="cls-1" cx="463.03" cy="111.78" r="112.73"/>
</svg>